<svg id="Layer_1" data-name="Layer 1" xmlns="http://www.w3.org/2000/svg" viewBox="0 0 872.5 624.94"><defs><style>.cls-1{fill:#fff;}.cls-2{fill:none;}</style></defs><title>Icon</title><polygon class="cls-1" points="84 109 260.5 384 205 428 0 109 84 109"/><rect class="cls-1" x="401" y="109" width="70" height="232"/><polygon class="cls-1" points="660.5 109 570 374.5 504.39 350.8 585.5 109 660.5 109"/><polygon class="cls-1" points="872.5 109 660.5 441 604.5 396 789.5 109 872.5 109"/><polygon class="cls-1" points="778 465.5 778 624.94 708 624.94 708 537 170.5 537 170.5 624.94 98.5 624.94 98.5 465.5 778 465.5"/><line class="cls-2" x1="225.5" y1="19" x2="265.5"/><polygon class="cls-1" points="286.5 109 365 344.5 299 366.97 212.5 109 286.5 109"/></svg>